<?xml version="1.0"?>
<svg xmlns="http://www.w3.org/2000/svg" xmlns:xlink="http://www.w3.org/1999/xlink" version="1.1" viewBox="0 0 224 224" width="24px" height="24px"><g fill="none" fill-rule="nonzero" stroke="none" stroke-width="1" stroke-linecap="butt" stroke-linejoin="miter" stroke-miterlimit="10" stroke-dasharray="" stroke-dashoffset="0" font-family="none" font-weight="none" font-size="none" text-anchor="none" style="mix-blend-mode: normal"><path d="M0,224v-224h224v224z" fill="none"/><g fill="#ffffff"><g id="surface1"><path d="M123.77604,138.76042l23.15104,23.15103c-3.53647,6.7448 -3.90104,13.45313 -0.1823,17.17188l42.25521,42.25521c5.32292,5.32291 16.91667,2.40625 25.8125,-6.52604c8.93229,-8.93229 11.84896,-20.48958 6.52604,-25.8125l-42.21875,-42.25521c-3.7552,-3.71875 -10.46353,-3.35417 -17.20833,0.14583l-23.15103,-23.11458zM79.33333,0c-43.82291,0 -79.33333,35.51042 -79.33333,79.33333c0,43.82292 35.51042,79.33333 79.33333,79.33333c43.82292,0 79.33333,-35.51041 79.33333,-79.33333c0,-43.82291 -35.51041,-79.33333 -79.33333,-79.33333zM79.33333,140c-33.50521,0 -60.66667,-27.16146 -60.66667,-60.66667c0,-33.50521 27.16146,-60.66667 60.66667,-60.66667c33.50521,0 60.66667,27.16146 60.66667,60.66667c0,33.50521 -27.16146,60.66667 -60.66667,60.66667z"/></g></g></g></svg>
